# xmcd CD database file
#
# Track frame offsets:
#	150
#	9527
#	11815
#	32912
#	54647
#	69002
#	92417
#	114435
#	132517
#	155157
#	175665
#	195015
#	221572
#	246262
#	269662
#
# Disc length: 3949 seconds
#
# Revision: 6
# Processed by: cddbd v1.5.2PL0 Copyright (c) Steve Scherf et al.
# Submitted via: CDex 1.51
#
DISCID=ca0f6b0f
DTITLE=Dalida - Comme si j'étais là
DYEAR=1995
DGENRE=Chanson Française
TTITLE0=Comme si j'étais là
TTITLE1=Prélude
TTITLE2=Besame Mucho
TTITLE3=Jusqu'au bout du Rêve
TTITLE4=Il venait d'avoir 18 ans
TTITLE5=Salma ya Salama
TTITLE6=J'attendrai
TTITLE7=Le Lambeth Walk
TTITLE8=Les Feuilles Mortes
TTITLE9=Rio do Brasil
TTITLE10=Ti Amo
TTITLE11=Génération Dalida
TTITLE12=Mourir sur Scène
TTITLE13=Salma Ya Salama (bonus)
TTITLE14=Laissez-moi danser
EXTD=YEAR: 1995
EXTT0=
EXTT1=
EXTT2=
EXTT3=
EXTT4=
EXTT5=
EXTT6=
EXTT7=
EXTT8=
EXTT9=
EXTT10=
EXTT11=
EXTT12=
EXTT13=
EXTT14=
PLAYORDER=
